If you care to share, you should love to seed,

please Seed what you leech and make the speed Faster with your speed,

and remember to visit http:// www . Speed . cd



Poster


 
http://i133.photobucket.com/albums/q45/edyzeid/General2/51kp1eLHDjL_SS500_.jpg

A.Golden.Christmas.2009.DVDRip.STV.XviD-DIVERSITY

[info] 
[b]
Video
ID: 0
Format: MPEG-4 Visual
Format profile: Simple@L3
Format settings, BVOP: No
Format settings, QPel: No
Format settings, GMC: No warppoints
Format settings, Matrix: Default (H.263)
Codec ID: XVID
Codec ID/Hint: XviD
Duration: 1h 29mn
Bit rate: 963 Kbps
Width: 656 pixels
Height: 352 pixels
Display aspect ratio: 1.864
Frame rate: 29.970 fps
Color space: YUV
Chroma subsampling: 4:2:0
Bit depth: 8 bits
Scan type: Progressive
Compression mode: Lossy
Bits/(Pixel*Frame): 0.139
Stream size: 615 MiB (87%)
Writing library: XviD 1.0.3 (UTC 2004-12-20)

Audio
ID: 1
Format: MPEG Audio
Format version: Version 1
Format profile: Layer 3
Mode: Joint stereo
Mode extension: MS Stereo
Codec ID: 55
Codec ID/Hint: MP3
Duration: 1h 29mn
Bit rate mode: Constant
Bit rate: 128 Kbps
Channel(s): 2 channels
Sampling rate: 48.0 KHz
Compression mode: Lossy
Stream size: 81.8 MiB (12%)
Alignment: Aligned on interleaves
Interleave, duration: 33 ms (1.00 video frame)
Interleave, preload duration: 504 ms
Writing library: LAME3.98r
Encoding settings: -m j -V 4 -q 2 -lowpass 17 -b 128 

[cast]
Andrea Roth ... Jessica
Nicholas Brendon ... Michael
Elisa Donovan ... Anna
Bruce Davison ... Rod
Alley Mills ... Katherine
Jason London ... Mitch
Daniel Zykov ... Henry
Melody Hollis ... Madeline
Sherman ... The Dog
Robert Seay ... Chet
Kali Majors ... Young Jessica
Sam Cohen ... Young Michael
Chastity Dotson ... Jill Robington 

[plot]
Jessica is a federal lawyer who returns to her parent's home for Christmas. When she discovers that the house 
where she grew up was sold to a stranger, Jessica must look for ways to buy it back again. She tries to get Michael 
(the new owner) arrested, but she also doesn't remember who he really is 

[note]
Sample Provided for Video/Audio Quality purposes

Greetz To:

*THC*,PrisM,DiGiTaL iNK,ViSiON,LEGi0N,FLAWL3SS,Rx,Hibees,xXTHORNXx,Noir,IMAGiNE
PDU,ELEKTRI4KA,KART3LDVD,CTFX,202122, StevieL,skrufern
All the people that make p2p what it is...THANKS[/b] 

[screens] 